<?xml version="1.0" encoding="UTF-8" standalone="no"?>
<!DOCTYPE svg PUBLIC "-//W3C//DTD SVG 1.1//EN"
 "http://www.w3.org/Graphics/SVG/1.1/DTD/svg11.dtd">
<!-- Generated by graphviz version 2.49.3 (20211023.0002)
 -->
<!-- Pages: 1 -->
<svg width="644pt" height="213pt"
 viewBox="0.00 0.00 643.50 213.00" xmlns="http://www.w3.org/2000/svg" xmlns:xlink="http://www.w3.org/1999/xlink">
<g id="graph0" class="graph" transform="scale(1 1) rotate(0) translate(4 209)">
<polygon fill="white" stroke="transparent" points="-4,4 -4,-209 639.5,-209 639.5,4 -4,4"/>
<!-- main_keyboard -->
<g id="node1" class="node">
<title>main_keyboard</title>
<polygon fill="none" stroke="black" points="88.5,-102.5 88.5,-204.5 522.5,-204.5 522.5,-102.5 88.5,-102.5"/>
<text text-anchor="middle" x="305.5" y="-175.3" font-family="jetbrains mono" font-size="14.00">Choose image topic:</text>
<polyline fill="none" stroke="black" points="88.5,-153.5 522.5,-153.5 "/>
<text text-anchor="middle" x="159.5" y="-124.3" font-family="jetbrains mono" font-size="14.00">Cats</text>
<polyline fill="none" stroke="black" points="230.5,-102.5 230.5,-153.5 "/>
<text text-anchor="middle" x="305.5" y="-124.3" font-family="jetbrains mono" font-size="14.00">Chill</text>
<polyline fill="none" stroke="black" points="380.5,-102.5 380.5,-153.5 "/>
<text text-anchor="middle" x="451.5" y="-124.3" font-family="jetbrains mono" font-size="14.00">Yawn</text>
</g>
<!-- image1 -->
<g id="node2" class="node">
<title>image1</title>
<polygon fill="none" stroke="black" points="177,-66 0,-66 0,0 183,0 183,-60 177,-66"/>
<polyline fill="none" stroke="black" points="177,-66 177,-60 "/>
<polyline fill="none" stroke="black" points="183,-60 177,-60 "/>
<text text-anchor="middle" x="91.5" y="-36.8" font-family="jetbrains mono" font-size="14.00">Meow</text>
<text text-anchor="middle" x="91.5" y="-21.8" font-family="jetbrains mono" font-size="14.00">image.jpg</text>
</g>
<!-- main_keyboard&#45;&gt;image1 -->
<g id="edge1" class="edge">
<title>main_keyboard:cats&#45;&gt;image1</title>
<path fill="none" stroke="black" d="M87.5,-127.5C65.27,-127.5 67.95,-100.79 75.26,-75.92"/>
<polygon fill="black" stroke="black" points="78.66,-76.77 78.36,-66.18 71.99,-74.64 78.66,-76.77"/>
</g>
<!-- image2 -->
<g id="node3" class="node">
<title>image2</title>
<polygon fill="none" stroke="black" points="403.5,-66 201.5,-66 201.5,0 409.5,0 409.5,-60 403.5,-66"/>
<polyline fill="none" stroke="black" points="403.5,-66 403.5,-60 "/>
<polyline fill="none" stroke="black" points="409.5,-60 403.5,-60 "/>
<text text-anchor="middle" x="305.5" y="-36.8" font-family="jetbrains mono" font-size="14.00">*no caption*</text>
<text text-anchor="middle" x="305.5" y="-21.8" font-family="jetbrains mono" font-size="14.00">image.jpg</text>
</g>
<!-- main_keyboard&#45;&gt;image2 -->
<g id="edge2" class="edge">
<title>main_keyboard:chill&#45;&gt;image2</title>
<path fill="none" stroke="black" d="M305.5,-102C305.5,-93.69 305.5,-84.81 305.5,-76.3"/>
<polygon fill="black" stroke="black" points="309,-76.17 305.5,-66.17 302,-76.17 309,-76.17"/>
</g>
<!-- image3 -->
<g id="node4" class="node">
<title>image3</title>
<polygon fill="none" stroke="black" points="629.5,-66 427.5,-66 427.5,0 635.5,0 635.5,-60 629.5,-66"/>
<polyline fill="none" stroke="black" points="629.5,-66 629.5,-60 "/>
<polyline fill="none" stroke="black" points="635.5,-60 629.5,-60 "/>
<text text-anchor="middle" x="531.5" y="-36.8" font-family="jetbrains mono" font-size="14.00">*no caption*</text>
<text text-anchor="middle" x="531.5" y="-21.8" font-family="jetbrains mono" font-size="14.00">image.jpg</text>
</g>
<!-- main_keyboard&#45;&gt;image3 -->
<g id="edge3" class="edge">
<title>main_keyboard:yawn&#45;&gt;image3</title>
<path fill="none" stroke="black" d="M523.5,-127.5C545.69,-127.5 546.53,-101.02 542.46,-76.25"/>
<polygon fill="black" stroke="black" points="545.85,-75.34 540.54,-66.18 538.97,-76.66 545.85,-75.34"/>
</g>
</g>
</svg>
