<?xml version="1.0" encoding="UTF-8" standalone="no"?>
<!DOCTYPE svg PUBLIC "-//W3C//DTD SVG 1.1//EN"
 "http://www.w3.org/Graphics/SVG/1.1/DTD/svg11.dtd">
<!-- Generated by graphviz version 2.49.3 (20211023.0002)
 -->
<!-- Pages: 1 -->
<svg width="1219pt" height="352pt"
 viewBox="0.00 0.00 1219.00 352.00" xmlns="http://www.w3.org/2000/svg" xmlns:xlink="http://www.w3.org/1999/xlink">
<g id="graph0" class="graph" transform="scale(1 1) rotate(0) translate(4 348)">
<polygon fill="white" stroke="transparent" points="-4,4 -4,-348 1215,-348 1215,4 -4,4"/>
<!-- main_keyboard -->
<g id="node1" class="node">
<title>main_keyboard</title>
<polygon fill="none" stroke="black" points="392.5,-241.5 392.5,-343.5 826.5,-343.5 826.5,-241.5 392.5,-241.5"/>
<text text-anchor="middle" x="609.5" y="-314.3" font-family="jetbrains mono" font-size="14.00">What are you looking for?</text>
<polyline fill="none" stroke="black" points="392.5,-292.5 826.5,-292.5 "/>
<text text-anchor="middle" x="463.5" y="-263.3" font-family="jetbrains mono" font-size="14.00">Cars</text>
<polyline fill="none" stroke="black" points="534.5,-241.5 534.5,-292.5 "/>
<text text-anchor="middle" x="605.5" y="-263.3" font-family="jetbrains mono" font-size="14.00">Cats</text>
<polyline fill="none" stroke="black" points="676.5,-241.5 676.5,-292.5 "/>
<text text-anchor="middle" x="751.5" y="-263.3" font-family="jetbrains mono" font-size="14.00">Stars</text>
</g>
<!-- multi -->
<g id="node2" class="node">
<title>multi</title>
<polygon fill="none" stroke="black" points="415,-0.5 415,-204.5 796,-204.5 796,-0.5 415,-0.5"/>
<text text-anchor="middle" x="605.5" y="-175.3" font-family="jetbrains mono" font-size="14.00">Here you can see the russian cat:</text>
<polyline fill="none" stroke="black" points="415,-153.5 796,-153.5 "/>
<text text-anchor="middle" x="605.5" y="-124.3" font-family="jetbrains mono" font-size="14.00">*image.jpg*</text>
<polyline fill="none" stroke="black" points="415,-102.5 796,-102.5 "/>
<text text-anchor="middle" x="605.5" y="-73.3" font-family="jetbrains mono" font-size="14.00">And another russian cat:</text>
<polyline fill="none" stroke="black" points="415,-51.5 796,-51.5 "/>
<text text-anchor="middle" x="605.5" y="-22.3" font-family="jetbrains mono" font-size="14.00">*image.jpg*</text>
</g>
<!-- main_keyboard&#45;&gt;multi -->
<g id="edge1" class="edge">
<title>main_keyboard:cats&#45;&gt;multi</title>
<path fill="none" stroke="black" d="M605.5,-241C605.5,-232.59 605.5,-223.9 605.5,-215.15"/>
<polygon fill="black" stroke="black" points="609,-214.87 605.5,-204.87 602,-214.87 609,-214.87"/>
</g>
<!-- It is better to see them in the sky -->
<g id="node3" class="node">
<title>It is better to see them in the sky</title>
<polygon fill="none" stroke="black" points="1211,-128 814,-128 814,-77 1211,-77 1211,-128"/>
<text text-anchor="middle" x="1012.5" y="-98.8" font-family="jetbrains mono" font-size="14.00">It is better to see them in the sky</text>
</g>
<!-- main_keyboard&#45;&gt;It is better to see them in the sky -->
<g id="edge2" class="edge">
<title>main_keyboard:stars&#45;&gt;It is better to see them in the sky</title>
<path fill="none" stroke="black" d="M827.5,-266.5C905.11,-266.5 965.59,-184.73 994.27,-137.03"/>
<polygon fill="black" stroke="black" points="997.37,-138.65 999.41,-128.26 991.33,-135.11 997.37,-138.65"/>
</g>
<!-- We have no article about this topic -->
<g id="node4" class="node">
<title>We have no article about this topic</title>
<polygon fill="none" stroke="black" points="397,-128 0,-128 0,-77 397,-77 397,-128"/>
<text text-anchor="middle" x="198.5" y="-98.8" font-family="jetbrains mono" font-size="14.00">We have no article about this topic</text>
</g>
<!-- main_keyboard&#45;&gt;We have no article about this topic -->
<g id="edge3" class="edge">
<title>main_keyboard:cars&#45;&gt;We have no article about this topic</title>
<path fill="none" stroke="black" d="M391.5,-266.5C311.98,-266.5 248.29,-184.73 217.89,-137.03"/>
<polygon fill="black" stroke="black" points="220.69,-134.9 212.43,-128.26 214.75,-138.6 220.69,-134.9"/>
</g>
</g>
</svg>
