<?xml version="1.0" encoding="UTF-8" standalone="no"?>
<!DOCTYPE svg PUBLIC "-//W3C//DTD SVG 1.1//EN"
 "http://www.w3.org/Graphics/SVG/1.1/DTD/svg11.dtd">
<!-- Generated by graphviz version 2.40.1 (20161225.0304)
 -->
<!-- Title: %0 Pages: 1 -->
<svg width="963pt" height="508pt"
 viewBox="0.00 0.00 962.59 507.80" xmlns="http://www.w3.org/2000/svg" xmlns:xlink="http://www.w3.org/1999/xlink">
<g id="graph0" class="graph" transform="scale(1 1) rotate(0) translate(4 503.8)">
<title>%0</title>
<polygon fill="#ffffff" stroke="transparent" points="-4,4 -4,-503.8 958.594,-503.8 958.594,4 -4,4"/>
<!-- main -->
<g id="node1" class="node">
<title>main</title>
<polygon fill="none" stroke="#000000" points="533.6079,-499.7004 305.5801,-499.7004 305.5801,-447.0996 533.6079,-447.0996 533.6079,-499.7004"/>
<text text-anchor="middle" x="419.594" y="-469.2" font-family="jetbrains mono" font-size="14.00" fill="#000000">Your main keyboard!</text>
</g>
<!-- main_keyboard -->
<g id="node2" class="node">
<title>main_keyboard</title>
<polygon fill="none" stroke="#000000" points="122.109,-357.7 122.109,-410.5 717.079,-410.5 717.079,-357.7 122.109,-357.7"/>
<text text-anchor="middle" x="256.9758" y="-379.9" font-family="jetbrains mono" font-size="14.00" fill="#000000">Some interesting goes here...</text>
<polyline fill="none" stroke="#000000" points="391.8426,-357.7 391.8426,-410.5 "/>
<text text-anchor="middle" x="484.5246" y="-379.9" font-family="jetbrains mono" font-size="14.00" fill="#000000">Current time?</text>
<polyline fill="none" stroke="#000000" points="577.2066,-357.7 577.2066,-410.5 "/>
<text text-anchor="middle" x="647.1428" y="-379.9" font-family="jetbrains mono" font-size="14.00" fill="#000000">Help!</text>
</g>
<!-- main&#45;&gt;main_keyboard -->
<g id="edge1" class="edge">
<title>main&#45;&gt;main_keyboard</title>
<path fill="none" stroke="#000000" d="M419.594,-447.09C419.594,-438.8069 419.594,-429.5046 419.594,-420.6431"/>
<polygon fill="#000000" stroke="#000000" points="423.0941,-420.5305 419.594,-410.5305 416.0941,-420.5305 423.0941,-420.5305"/>
</g>
<!-- {current_time} -->
<g id="node3" class="node">
<title>{current_time}</title>
<polygon fill="none" stroke="#000000" points="581.0586,-321.1004 388.1294,-321.1004 388.1294,-268.4996 581.0586,-268.4996 581.0586,-321.1004"/>
<text text-anchor="middle" x="484.594" y="-290.6" font-family="jetbrains mono" font-size="14.00" fill="#000000">{current_time}</text>
</g>
<!-- main_keyboard&#45;&gt;{current_time} -->
<g id="edge2" class="edge">
<title>main_keyboard:time&#45;&gt;{current_time}</title>
<path fill="none" stroke="#000000" d="M484.594,-358.1C484.594,-349.5058 484.594,-340.2553 484.594,-331.5514"/>
<polygon fill="#000000" stroke="#000000" points="488.0941,-331.2865 484.594,-321.2865 481.0941,-331.2866 488.0941,-331.2865"/>
</g>
<!-- Some long and boring bot instruction... -->
<g id="node4" class="node">
<title>Some long and boring bot instruction...</title>
<polygon fill="none" stroke="#000000" points="926.4112,-321.1004 598.7768,-321.1004 598.7768,-268.4996 926.4112,-268.4996 926.4112,-321.1004"/>
<text text-anchor="middle" x="762.594" y="-290.6" font-family="jetbrains mono" font-size="14.00" fill="#000000">Some long and boring bot instruction...</text>
</g>
<!-- main_keyboard&#45;&gt;Some long and boring bot instruction... -->
<g id="edge3" class="edge">
<title>main_keyboard:help&#45;&gt;Some long and boring bot instruction...</title>
<path fill="none" stroke="#000000" d="M716.594,-384.1C741.7314,-384.1 753.1447,-355.7897 758.3195,-331.0493"/>
<polygon fill="#000000" stroke="#000000" points="761.7813,-331.5741 760.1227,-321.11 754.8937,-330.3245 761.7813,-331.5741"/>
</g>
<!-- Wanna see some nested code? -->
<g id="node5" class="node">
<title>Wanna see some nested code?</title>
<polygon fill="none" stroke="#000000" points="370.57,-321.1004 92.618,-321.1004 92.618,-268.4996 370.57,-268.4996 370.57,-321.1004"/>
<text text-anchor="middle" x="231.594" y="-290.6" font-family="jetbrains mono" font-size="14.00" fill="#000000">Wanna see some nested code?</text>
</g>
<!-- main_keyboard&#45;&gt;Wanna see some nested code? -->
<g id="edge4" class="edge">
<title>main_keyboard&#45;&gt;Wanna see some nested code?</title>
<path fill="none" stroke="#000000" d="M363.9509,-357.6695C342.729,-347.5891 318.3589,-336.0133 296.3608,-325.5642"/>
<polygon fill="#000000" stroke="#000000" points="297.6289,-322.2918 287.0944,-321.1627 294.6254,-328.6148 297.6289,-322.2918"/>
</g>
<!-- nested_keyboard -->
<g id="node6" class="node">
<title>nested_keyboard</title>
<polygon fill="none" stroke="#000000" points="104.1578,-179.1 104.1578,-231.9 359.0302,-231.9 359.0302,-179.1 104.1578,-179.1"/>
<text text-anchor="middle" x="166.7111" y="-201.3" font-family="jetbrains mono" font-size="14.00" fill="#000000">No</text>
<polyline fill="none" stroke="#000000" points="229.2644,-179.1 229.2644,-231.9 "/>
<text text-anchor="middle" x="294.1473" y="-201.3" font-family="jetbrains mono" font-size="14.00" fill="#000000">Yes</text>
</g>
<!-- Wanna see some nested code?&#45;&gt;nested_keyboard -->
<g id="edge5" class="edge">
<title>Wanna see some nested code?:s&#45;&gt;nested_keyboard:n</title>
<path fill="none" stroke="#000000" d="M231.594,-268.8C231.594,-256.2372 231.594,-250.8145 231.594,-241.7102"/>
<polygon fill="#000000" stroke="#000000" points="235.0941,-241.5 231.594,-231.5 228.0941,-241.5 235.0941,-241.5"/>
</g>
<!-- Your choice, not mine -->
<g id="node7" class="node">
<title>Your choice, not mine</title>
<polygon fill="none" stroke="#000000" points="233.2821,-142.5004 -.0941,-142.5004 -.0941,-89.8996 233.2821,-89.8996 233.2821,-142.5004"/>
<text text-anchor="middle" x="116.594" y="-112" font-family="jetbrains mono" font-size="14.00" fill="#000000">Your choice, not mine</text>
</g>
<!-- nested_keyboard&#45;&gt;Your choice, not mine -->
<g id="edge6" class="edge">
<title>nested_keyboard:no&#45;&gt;Your choice, not mine</title>
<path fill="none" stroke="#000000" d="M166.594,-179.5C166.594,-168.9934 162.2998,-159.2085 156.2283,-150.6246"/>
<polygon fill="#000000" stroke="#000000" points="158.9276,-148.396 149.9447,-142.7783 153.4637,-152.7717 158.9276,-148.396"/>
</g>
<!-- Here you are! -->
<g id="node8" class="node">
<title>Here you are!</title>
<polygon fill="none" stroke="#000000" points="437.0408,-142.5004 252.1472,-142.5004 252.1472,-89.8996 437.0408,-89.8996 437.0408,-142.5004"/>
<text text-anchor="middle" x="344.594" y="-112" font-family="jetbrains mono" font-size="14.00" fill="#000000">Here you are!</text>
</g>
<!-- nested_keyboard&#45;&gt;Here you are! -->
<g id="edge8" class="edge">
<title>nested_keyboard:yes&#45;&gt;Here you are!</title>
<path fill="none" stroke="#000000" d="M294.594,-179.5C294.594,-168.9934 298.8882,-159.2085 304.9597,-150.6246"/>
<polygon fill="#000000" stroke="#000000" points="307.7243,-152.7717 311.2433,-142.7783 302.2604,-148.396 307.7243,-152.7717"/>
</g>
<!-- Your choice, not mine&#45;&gt;main -->
<g id="edge7" class="edge">
<title>Your choice, not mine&#45;&gt;main</title>
<path fill="none" stroke="#000000" d="M105.2246,-142.6059C81.8965,-201.3773 36.9572,-343.1348 113.594,-411 140.7311,-435.0311 222.9989,-450.982 295.4039,-460.7376"/>
<polygon fill="#000000" stroke="#000000" points="295.177,-464.2378 305.5483,-462.0732 296.0908,-457.2977 295.177,-464.2378"/>
</g>
<!-- nested -->
<g id="node9" class="node">
<title>nested</title>
<polygon fill="none" stroke="#000000" points="227.1627,-.5 227.1627,-53.3 852.0253,-53.3 852.0253,-.5 227.1627,-.5"/>
<text text-anchor="middle" x="297.1066" y="-22.7" font-family="jetbrains mono" font-size="14.00" fill="#000000">Some</text>
<polyline fill="none" stroke="#000000" points="367.0505,-.5 367.0505,-53.3 "/>
<text text-anchor="middle" x="442.4306" y="-22.7" font-family="jetbrains mono" font-size="14.00" fill="#000000">Useless</text>
<polyline fill="none" stroke="#000000" points="517.8107,-.5 517.8107,-53.3 "/>
<text text-anchor="middle" x="593.5919" y="-22.7" font-family="jetbrains mono" font-size="14.00" fill="#000000">Buttons</text>
<polyline fill="none" stroke="#000000" points="669.3731,-.5 669.3731,-53.3 "/>
<text text-anchor="middle" x="760.6992" y="-22.7" font-family="jetbrains mono" font-size="14.00" fill="#000000">Back to main</text>
</g>
<!-- Here you are!&#45;&gt;nested -->
<g id="edge9" class="edge">
<title>Here you are!&#45;&gt;nested</title>
<path fill="none" stroke="#000000" d="M402.0457,-89.89C424.1635,-79.7613 449.6092,-68.1084 472.5532,-57.6012"/>
<polygon fill="#000000" stroke="#000000" points="474.2444,-60.6764 481.879,-53.3305 471.3298,-54.312 474.2444,-60.6764"/>
</g>
<!-- nested&#45;&gt;main -->
<g id="edge10" class="edge">
<title>nested:back&#45;&gt;main</title>
<path fill="none" stroke="#000000" d="M851.594,-26.9C943.2261,-26.9 954.594,-113.8679 954.594,-205.5 954.594,-294.8 954.594,-294.8 954.594,-294.8 954.594,-380.9156 702.0441,-433.0066 543.9798,-457.1758"/>
<polygon fill="#000000" stroke="#000000" points="543.0737,-453.7729 533.7087,-458.7275 544.1194,-460.6944 543.0737,-453.7729"/>
</g>
</g>
</svg>
