<?xml version="1.0" encoding="UTF-8" standalone="no"?>
<!DOCTYPE svg PUBLIC "-//W3C//DTD SVG 1.1//EN"
 "http://www.w3.org/Graphics/SVG/1.1/DTD/svg11.dtd">
<!-- Generated by graphviz version 2.40.1 (20161225.0304)
 -->
<!-- Title: %0 Pages: 1 -->
<svg width="984pt" height="521pt"
 viewBox="0.00 0.00 983.99 521.13" xmlns="http://www.w3.org/2000/svg" xmlns:xlink="http://www.w3.org/1999/xlink">
<g id="graph0" class="graph" transform="scale(1 1) rotate(0) translate(4 517.1273)">
<title>%0</title>
<polygon fill="#ffffff" stroke="transparent" points="-4,4 -4,-517.1273 979.9945,-517.1273 979.9945,4 -4,4"/>
<!-- main -->
<g id="node1" class="node">
<title>main</title>
<polygon fill="none" stroke="#000000" points="975.7517,-513.0277 747.7239,-513.0277 747.7239,-460.4269 975.7517,-460.4269 975.7517,-513.0277"/>
<text text-anchor="middle" x="861.7378" y="-482.5273" font-family="jetbrains mono" font-size="14.00" fill="#000000">Your main keyboard!</text>
</g>
<!-- main_keyboard -->
<g id="node2" class="node">
<title>main_keyboard</title>
<polygon fill="none" stroke="#000000" points="87.2528,-371.0273 87.2528,-423.8273 682.2228,-423.8273 682.2228,-371.0273 87.2528,-371.0273"/>
<text text-anchor="middle" x="222.1196" y="-393.2273" font-family="jetbrains mono" font-size="14.00" fill="#000000">Some interesting goes here...</text>
<polyline fill="none" stroke="#000000" points="356.9864,-371.0273 356.9864,-423.8273 "/>
<text text-anchor="middle" x="449.6684" y="-393.2273" font-family="jetbrains mono" font-size="14.00" fill="#000000">Current time?</text>
<polyline fill="none" stroke="#000000" points="542.3504,-371.0273 542.3504,-423.8273 "/>
<text text-anchor="middle" x="612.2866" y="-393.2273" font-family="jetbrains mono" font-size="14.00" fill="#000000">Help!</text>
</g>
<!-- main&#45;&gt;main_keyboard -->
<g id="edge1" class="edge">
<title>main&#45;&gt;main_keyboard</title>
<path fill="none" stroke="#000000" d="M747.4844,-465.3377C684.0428,-453.4607 604.3283,-438.5372 535.7948,-425.707"/>
<polygon fill="#000000" stroke="#000000" points="536.2411,-422.2298 525.7677,-423.8298 534.9529,-429.1102 536.2411,-422.2298"/>
</g>
<!-- {current_time} -->
<g id="node3" class="node">
<title>{current_time}</title>
<polygon fill="none" stroke="#000000" points="488.2024,-334.4277 295.2732,-334.4277 295.2732,-281.8269 488.2024,-281.8269 488.2024,-334.4277"/>
<text text-anchor="middle" x="391.7378" y="-303.9273" font-family="jetbrains mono" font-size="14.00" fill="#000000">{current_time}</text>
</g>
<!-- main_keyboard&#45;&gt;{current_time} -->
<g id="edge2" class="edge">
<title>main_keyboard:time&#45;&gt;{current_time}</title>
<path fill="none" stroke="#000000" d="M449.7378,-371.4273C449.7378,-360.472 444.9568,-350.5895 438.14,-342.0669"/>
<polygon fill="#000000" stroke="#000000" points="440.7004,-339.68 431.3862,-334.6305 435.5185,-344.3863 440.7004,-339.68"/>
</g>
<!-- Some long and boring bot instruction... -->
<g id="node4" class="node">
<title>Some long and boring bot instruction...</title>
<polygon fill="none" stroke="#000000" points="833.555,-334.4277 505.9206,-334.4277 505.9206,-281.8269 833.555,-281.8269 833.555,-334.4277"/>
<text text-anchor="middle" x="669.7378" y="-303.9273" font-family="jetbrains mono" font-size="14.00" fill="#000000">Some long and boring bot instruction...</text>
</g>
<!-- main_keyboard&#45;&gt;Some long and boring bot instruction... -->
<g id="edge3" class="edge">
<title>main_keyboard:help&#45;&gt;Some long and boring bot instruction...</title>
<path fill="none" stroke="#000000" d="M612.7378,-371.4273C612.7378,-360.4446 617.5348,-350.5068 624.3456,-341.932"/>
<polygon fill="#000000" stroke="#000000" points="626.9936,-344.2218 631.0867,-334.4495 621.7929,-339.5364 626.9936,-344.2218"/>
</g>
<!-- Wanna see some nested code? -->
<g id="node5" class="node">
<title>Wanna see some nested code?</title>
<polygon fill="none" stroke="#000000" points="277.7138,-334.4277 -.2382,-334.4277 -.2382,-281.8269 277.7138,-281.8269 277.7138,-334.4277"/>
<text text-anchor="middle" x="138.7378" y="-303.9273" font-family="jetbrains mono" font-size="14.00" fill="#000000">Wanna see some nested code?</text>
</g>
<!-- main_keyboard&#45;&gt;Wanna see some nested code? -->
<g id="edge4" class="edge">
<title>main_keyboard&#45;&gt;Wanna see some nested code?</title>
<path fill="none" stroke="#000000" d="M311.9282,-370.9968C283.2914,-360.6014 250.2735,-348.6157 220.7966,-337.9153"/>
<polygon fill="#000000" stroke="#000000" points="221.9547,-334.6123 211.3606,-334.49 219.5661,-341.1922 221.9547,-334.6123"/>
</g>
<!-- nested_keyboard -->
<g id="node6" class="node">
<title>nested_keyboard</title>
<polygon fill="none" stroke="#000000" points="463.3016,-192.4273 463.3016,-245.2273 718.174,-245.2273 718.174,-192.4273 463.3016,-192.4273"/>
<text text-anchor="middle" x="528.1845" y="-214.6273" font-family="jetbrains mono" font-size="14.00" fill="#000000">Yes</text>
<polyline fill="none" stroke="#000000" points="593.0674,-192.4273 593.0674,-245.2273 "/>
<text text-anchor="middle" x="655.6207" y="-214.6273" font-family="jetbrains mono" font-size="14.00" fill="#000000">No</text>
</g>
<!-- Wanna see some nested code?&#45;&gt;nested_keyboard -->
<g id="edge5" class="edge">
<title>Wanna see some nested code?:s&#45;&gt;nested_keyboard</title>
<path fill="none" stroke="#000000" d="M138.7378,-282.1273C138.7378,-250.0302 319.8063,-233.2056 452.7378,-225.1787"/>
<polygon fill="#000000" stroke="#000000" points="453.2497,-228.6546 463.0251,-224.5692 452.8356,-221.6669 453.2497,-228.6546"/>
</g>
<!-- Your choice, not mine -->
<g id="node7" class="node">
<title>Your choice, not mine</title>
<polygon fill="none" stroke="#000000" points="871.4259,-155.8277 638.0497,-155.8277 638.0497,-103.2269 871.4259,-103.2269 871.4259,-155.8277"/>
<text text-anchor="middle" x="754.7378" y="-125.3273" font-family="jetbrains mono" font-size="14.00" fill="#000000">Your choice, not mine</text>
</g>
<!-- nested_keyboard&#45;&gt;Your choice, not mine -->
<g id="edge6" class="edge">
<title>nested_keyboard:no&#45;&gt;Your choice, not mine</title>
<path fill="none" stroke="#000000" d="M717.7378,-218.8273C741.8193,-218.8273 750.5291,-190.7681 753.5335,-166.1067"/>
<polygon fill="#000000" stroke="#000000" points="757.0475,-166.1213 754.5,-155.8373 750.0783,-165.4653 757.0475,-166.1213"/>
</g>
<!-- Here you are! -->
<g id="node8" class="node">
<title>Here you are!</title>
<polygon fill="none" stroke="#000000" points="620.1846,-155.8277 435.291,-155.8277 435.291,-103.2269 620.1846,-103.2269 620.1846,-155.8277"/>
<text text-anchor="middle" x="527.7378" y="-125.3273" font-family="jetbrains mono" font-size="14.00" fill="#000000">Here you are!</text>
</g>
<!-- nested_keyboard&#45;&gt;Here you are! -->
<g id="edge8" class="edge">
<title>nested_keyboard:yes&#45;&gt;Here you are!</title>
<path fill="none" stroke="#000000" d="M527.7378,-192.8273C527.7378,-184.2331 527.7378,-174.9826 527.7378,-166.2787"/>
<polygon fill="#000000" stroke="#000000" points="531.2379,-166.0138 527.7378,-156.0139 524.2379,-166.0139 531.2379,-166.0138"/>
</g>
<!-- Your choice, not mine&#45;&gt;main -->
<g id="edge7" class="edge">
<title>Your choice, not mine:s&#45;&gt;main</title>
<path fill="none" stroke="#000000" d="M754.7378,-103.5273C754.7378,-77.6175 853.0108,-85.2063 871.3318,-103.5273 895.4636,-127.6591 874.7628,-359.1528 865.5826,-450.2038"/>
<polygon fill="#000000" stroke="#000000" points="862.0819,-450.0335 864.5499,-460.3369 869.0458,-450.7433 862.0819,-450.0335"/>
</g>
<!-- nested -->
<g id="node9" class="node">
<title>nested</title>
<polygon fill="none" stroke="#000000" points="245.3065,-13.8273 245.3065,-66.6273 870.1691,-66.6273 870.1691,-13.8273 245.3065,-13.8273"/>
<text text-anchor="middle" x="315.2504" y="-36.0273" font-family="jetbrains mono" font-size="14.00" fill="#000000">Some</text>
<polyline fill="none" stroke="#000000" points="385.1943,-13.8273 385.1943,-66.6273 "/>
<text text-anchor="middle" x="460.5744" y="-36.0273" font-family="jetbrains mono" font-size="14.00" fill="#000000">Useless</text>
<polyline fill="none" stroke="#000000" points="535.9545,-13.8273 535.9545,-66.6273 "/>
<text text-anchor="middle" x="611.7357" y="-36.0273" font-family="jetbrains mono" font-size="14.00" fill="#000000">Buttons</text>
<polyline fill="none" stroke="#000000" points="687.5169,-13.8273 687.5169,-66.6273 "/>
<text text-anchor="middle" x="778.843" y="-36.0273" font-family="jetbrains mono" font-size="14.00" fill="#000000">Back to main</text>
</g>
<!-- Here you are!&#45;&gt;nested -->
<g id="edge9" class="edge">
<title>Here you are!&#45;&gt;nested</title>
<path fill="none" stroke="#000000" d="M536.5765,-103.2174C539.4197,-94.7542 542.6203,-85.227 545.6552,-76.1932"/>
<polygon fill="#000000" stroke="#000000" points="548.9917,-77.2518 548.8586,-66.6578 542.3562,-75.0226 548.9917,-77.2518"/>
</g>
<!-- nested&#45;&gt;main -->
<g id="edge10" class="edge">
<title>nested:se&#45;&gt;main</title>
<path fill="none" stroke="#000000" d="M869.7378,-14.2273C934.7249,50.7598 899.7378,-126.9217 899.7378,-218.8273 899.7378,-308.1273 899.7378,-308.1273 899.7378,-308.1273 899.7378,-360.259 896.023,-373.6638 883.7378,-424.3273 881.6365,-432.9929 878.7868,-442.1406 875.8357,-450.6813"/>
<polygon fill="#000000" stroke="#000000" points="872.4447,-449.7686 872.3636,-460.3632 879.0339,-452.1317 872.4447,-449.7686"/>
</g>
</g>
</svg>
